<?xml version="1.0" encoding="UTF-8"?>
<svg id="Layer_1" data-name="Layer 1" xmlns="http://www.w3.org/2000/svg" viewBox="0 0 381.04 147.26">
  <defs>
    <style>
      .cls-1 {
        fill: #fff;
      }
    </style>
  </defs>
  <path class="cls-1" d="M24.44,13.11l-2.22,3.56-1.78,3.11-1.56,3.78-.89,3.11-1.11,2.89v2.44l-.89,2.44v6.67l1.11,2.89,1.11,3.33,.67,2.44,.22,1.11h-3.11l-3.33,2-4.44,3.33-2.89,4-2.44,3.56-1.56,4.44-1.33,4.91v10.42l1.56,3.11,2.89,4.89,3.56,3.33,4.22,3.56,6.22,2.67,4.67,1.33h9.33l-2.22-2.89-4.22-3.11-4-4-3.11-3.11-1.33-2.89,1.33-1.56,2,.67,2,1.56,3.11,3.56,3.56,3.11,4.22,4,1.56,2v1.78l2.22,.89,3.11-2.67,4.44-2.67,3.33-3.78,2-2.22V49.33l1.78-2.67,1.56-1.11h1.33l2.44,.89v1.33l1.78,1.11v40.22l1.78,2,1.33,2.44,1.56,.44,3.11-2.44,9.11-8.89,12-11.56,2.22-.22,1.33,.22v2.03l-2,3.53-4.22,3.78-9.56,9.11-7.78,7.56-.44,1.33s1.78,1.78,2.44,1.78,4.44,2.22,4.44,2.22h8.89s3.11,.89,3.78,0,2.44-.67,2.44-.67c0,0,3.33-1.11,4.22-1.33s5.11-2.89,5.11-2.89l3.78-4,3.78-5.56,1.56-4.44,1.11-3.78v-9.11l-1.33-5.33-2.89-5.33-2.22-3.11-2.22-2.44-3.11-1.56-3.11-1.56-3.33-1.11,1.11-10.44-1.11-13.56-2.89-7.78-5.11-6.44-7.33-6.44-8-4.22-9.56-1.33h-12.67l-6,2.44-4.67,2.67-5.33,3.11-5.11,4.89Z"/>
  <path class="cls-1" d="M52.22,146l-1.56-1.78v-22.89l-2-2.67-2.89-2.67-5.11-4.89-3.11-2.89-2-2.22-2-.98v-2.18h2l2-.4,2.89,2.57,4.22,4.54,4.44,4.67,1.78,.44v-6l1.33-16.89-1.78-.67v-3.11l2.67-.89,1.56-8.22,1.33,6.22,1.56,2.67,1.78,.44,1.78,2.89-2.89,.22v7.78h2l2.22-2v-2.44l1.56-.67,1.11,2.89,3.11,.22-.44,1.33,.44,1.11-3.33-.22-6.22,7.56-.22,36-.89,3.11s-.22,1.26-2,1.26h-2.89l-.44-1.26Z"/>
  <polygon class="cls-1" points="102.81 6.44 102.81 24.81 132.74 24.81 132.74 105.02 153.48 105.02 153.48 24.52 182.22 24.52 182.22 6.44 102.81 6.44"/>
  <polygon class="cls-1" points="184.89 105.02 184.89 33.41 203.26 33.41 203.26 44.96 205.93 42 209.48 37.56 214.81 33.41 218.67 31.93 227.85 31.93 227.85 51.19 216.59 51.19 211.26 52.96 206.37 58.89 204.74 62.15 204.74 105.02 184.89 105.02"/>
  <path class="cls-1" d="M301.04,50l-5.93-9.78-7.41-5.63-5.93-1.48-6.81-1.19h-13.33l-9.48,2.67-5.33,3.56-3.85,3.56-5.04,7.11-2.96,6.92-2.07,11.16v10.96l2.67,9.78,5.63,8.59,8,6.22,9.19,4.15,11.26,1.78h8.89l10.96-3.35,7.41-7.61,5.63-7.11,1.48-5.63h-20.74l-1.19,3.56-4.15,3.56-5.04,1.48-8.59-.3-5.04-2.96-4.74-4.74-2.37-4.74-.3-5.63,52.15-.3v-16l-2.96-8.59Zm-16,12.74h-32.3v-3.85l3.26-5.93,4.44-5.33h13.63l4.44,1.78,4.15,4.15,2.37,4.44v4.74Z"/>
  <path class="cls-1" d="M376.59,50l-5.93-9.78-7.41-5.63-5.93-1.48-6.81-1.19h-13.33l-9.48,2.67-5.33,3.56-3.85,3.56-5.04,7.11-2.96,6.92-2.07,11.16v10.96l2.67,9.78,5.63,8.59,8,6.22,9.19,4.15,11.26,1.78h8.89l10.96-3.35,7.41-7.61,5.63-7.11,1.48-5.63h-20.74l-1.19,3.56-4.15,3.56-5.04,1.48-8.59-.3-5.04-2.96-4.74-4.74-2.37-4.74-.3-5.63,52.15-.3v-16l-2.96-8.59Zm-16.44,12.74h-32.3v-3.85l3.26-5.93,4.44-5.33h13.63l4.44,1.78,4.15,4.15,2.37,4.44v4.74Z"/>
  <path class="cls-1" d="M154.96,120.22v-4.44l-1.19-2.96-2.37-2.96h-18.67v28.44h6.22l.3-10.37,9.19-.3,2.67-.3s2.37-1.78,3.85-3.26,0-3.85,0-3.85Zm-5.63-.3l-2.07,2.67h-7.7v-8h7.41l2.37,1.78v3.56Z"/>
  <polygon class="cls-1" points="159.11 109.85 159.11 138.3 165.04 138.3 165.04 124.07 166.22 122.59 167.7 120.81 170.37 121.11 172.44 122.59 172.44 126.44 172.44 138.3 179.26 138.3 179.26 128.22 179.26 120.22 176.3 117.26 173.63 116.07 169.18 116.37 168 118.59 165.63 118.59 165.63 109.85 159.11 109.85"/>
  <polygon class="cls-1" points="336 109.85 336 138.3 341.93 138.3 341.93 124.07 343.11 122.59 344.59 120.81 347.26 121.11 349.33 122.59 349.33 126.44 349.33 138.3 356.15 138.3 356.15 128.22 356.15 120.22 353.18 117.26 350.52 116.07 346.07 116.37 344.89 118.59 342.52 118.59 342.52 109.85 336 109.85"/>
  <path class="cls-1" d="M200.88,118.95c-.19-.24-.41-.45-.65-.63l-2.6-1.95h-6.52l-3.26,2.22-2.96,1.93-1.48,3.56v8.3l1.48,2.67,2.37,3.26h11.85l2.37-2.07,2.37-2.37v-11.26l-2.97-3.65Zm-1.77,8.39v2.96l-1.48,2.07-2.17,1.48h-3.83l-2-1.48v-8.3l1.78-1.48,2.22-1.48h1.83l1.8,.59,1.85,2.37v3.26Z"/>
  <path class="cls-1" d="M240.14,119.09c-.19-.24-.41-.45-.65-.63l-2.6-1.95h-6.52l-3.26,2.22-2.96,1.93-1.48,3.56v8.3l1.48,2.67,2.37,3.26h11.85l2.37-2.07,2.37-2.37v-11.26l-2.97-3.65Zm-1.77,8.39v2.96l-1.48,2.07-2.17,1.48h-3.83l-2-1.48v-8.3l1.78-1.48,2.22-1.48h1.83l1.8,.59,1.85,2.37v3.26Z"/>
  <path class="cls-1" d="M263.11,116.52l-.3,2.07h-2.07l-1.48-2.07h-5.04l-3.26,2.07-2.37,2.52-1.19,2.96v5.04s-.89,4.44,0,4.74c.89,.3,1.58,2.37,1.58,2.37l3.75,2.07,3.26,.15,3.26-.15,2.67-2.07v5.63h-7.46l-1.73-1.48-5.73-.3v2.96l2.17,2.07,2.07,2.15h10.67l2.96-1.85,1.48-2.07v-26.81h-3.26Zm-1.78,10.81v4.55l-1.48,1.96h-3.16l-3.95-1.96v-7.81l1.19-1.48,2.77-1.48,2.86,1.48,1.78,1.48v3.26Z"/>
  <polygon class="cls-1" points="272.3 116.52 272.3 138.44 278.81 138.44 278.81 125.56 280 124.07 280 122.59 285.04 122.59 285.04 116.52 282.37 116.52 280 118.59 278.67 118.59 278.67 116.37 272.3 116.52"/>
  <path class="cls-1" d="M304,117.56l-2.67-1.04h-8.59l-2.37,2.07-2.37,1.33v2.67h4.74l2.37-1.33,2.22-.15h1.63l1.78,.15v4l-2.07,.59h-2.67l-4.74,1.48-3.26,1.48v7.7l2.07,1.78,2.96,.15h3.26l2.67-.15,2.07-2.07,1.19,2.22,4.44-.15v-17.19l-2.67-3.56Zm-4.74,16.3l-2.37,1.09-2.96-.94-.7-2.28,1.3-2.02,4.2-1.31,1.83,.83,.48,2.67-1.78,1.96Z"/>
  <path class="cls-1" d="M330.37,119.33l-3.85-2.96-2.96,.15h-3.56l-2.07,2.22-1.78,.3-.3-2.67-4.74,.15v30.74h6.22v-10.15l2.07,1.19,4.15,.15,6.28-1.91,2.37-6.41,.83-4.57-2.67-6.22Zm-4.44,8.07v4.26l-2.37,2.19-3.56,.15-1.63-2.11-1.63-4.26v-3.56l3.26-2.81h3.85l2.07,2.81v3.33Z"/>
  <polygon class="cls-1" points="358.81 116.52 366.22 138.3 366.22 140.37 364.44 143.04 362.52 143.04 362.52 146 368.89 146 371.85 142.74 373.93 134.94 381.04 116.52 373.33 116.37 372.44 124.07 371.26 131.67 368.59 130 365.04 116.52 358.81 116.52"/>
  <polygon class="cls-1" points="210 111.11 210 116.52 206.37 116.52 206.37 121.11 210 121.11 210 127.63 210 134.94 210 137.11 212.74 138.3 219.26 138.3 219.26 134.94 216.59 134.94 215.41 131.89 215.41 121.11 219.26 121.26 219.26 117.56 215.11 116.52 215.41 111.11 210 111.11"/>
</svg>